
<svg width="176" height="36" viewBox="0 0 176 36" fill="none" xmlns="http://www.w3.org/2000/svg">
<g clip-path="url(#clip0)">
<path d="M47.1874 6.91194C46.4546 6.91194 45.7219 6.62394 45.2823 6.04794C44.6961 5.47194 44.403 4.89594 44.403 4.17594C44.403 3.45594 44.6961 2.73594 45.2823 2.30394C45.8685 1.72794 46.4546 1.43994 47.1874 1.43994C47.9201 1.43994 48.6528 1.72794 49.0924 2.30394C49.6786 2.87994 49.9717 3.45594 49.9717 4.17594C49.9717 4.89594 49.6786 5.61594 49.0924 6.04794C48.5063 6.62394 47.9201 6.91194 47.1874 6.91194ZM49.5321 28.7999H44.5496V9.35994H49.5321V28.7999Z" fill="#77787C"/>
<path d="M64.6262 9.21582C65.7985 9.21582 66.8243 9.35982 67.8501 9.79182C68.876 10.0798 69.6087 10.6558 70.3414 11.3758C71.0741 12.0958 71.6603 12.9598 71.9534 13.9678C72.393 14.9758 72.5396 16.1278 72.5396 17.4238V28.7998H67.557V17.9998C67.557 16.7038 67.1174 15.6958 66.3847 14.9758C65.652 14.2558 64.6262 13.8238 63.4538 13.8238C62.2814 13.8238 61.2556 14.2558 60.5229 14.9758C59.7902 15.6958 59.3506 16.7038 59.3506 17.9998V28.7998H54.368V9.35982H58.0317L58.9109 11.2318C59.3506 10.7998 59.9367 10.5118 60.5229 10.2238C60.9625 9.93582 61.5487 9.79182 62.2814 9.50382C63.0142 9.35982 63.7469 9.21582 64.6262 9.21582Z" fill="#77787C"/>
<path d="M84.8493 29.0878C83.677 29.0878 82.5046 28.7998 81.3322 28.3678C80.1599 27.9358 79.2806 27.2158 78.4014 26.3518C77.5221 25.4878 76.9359 24.4798 76.3497 23.1838C75.9101 22.0318 75.617 20.5918 75.617 19.1518C75.617 17.7118 75.9101 16.4158 76.3497 15.1198C76.7894 13.9678 77.5221 12.8158 78.4014 11.9518C79.2806 11.0878 80.3064 10.3678 81.3322 9.93582C82.5046 9.50382 83.677 9.21582 84.8493 9.21582C85.7286 9.21582 86.4613 9.35982 87.194 9.50382C87.9267 9.79182 88.5129 9.93582 88.9526 10.2238C89.5387 10.5118 89.9784 10.9438 90.418 11.2318L91.2973 9.35982H94.9609V28.7998H91.2973L90.418 26.9278C89.9784 27.3598 89.3922 27.6478 88.9526 27.9358C88.5129 28.2238 87.9267 28.5118 87.194 28.6558C86.4613 28.9438 85.7286 29.0878 84.8493 29.0878ZM90.418 19.1518C90.418 17.5678 89.9784 16.2718 88.9526 15.2638C88.0733 14.2558 86.9009 13.8238 85.4355 13.8238C83.97 13.8238 82.7977 14.2558 81.9184 15.2638C81.0392 16.2718 80.453 17.5678 80.453 19.1518C80.453 20.7358 80.8926 22.0318 81.9184 23.0398C82.7977 24.0478 84.1166 24.4798 85.4355 24.4798C86.7544 24.4798 88.0733 24.0478 88.9526 23.0398C89.9784 22.0318 90.418 20.7358 90.418 19.1518Z" fill="#77787C"/>
<path d="M106.977 9.21582C107.857 9.21582 108.589 9.35982 109.322 9.50382C110.055 9.79182 110.641 9.93582 111.081 10.2238C111.667 10.5118 112.107 10.9438 112.546 11.2318L113.425 9.35982H117.089V27.5038C117.089 30.0958 116.21 32.1118 114.598 33.6958C112.986 35.2798 110.641 35.9998 107.564 35.9998C105.659 35.9998 104.193 35.7118 103.167 34.9918C101.995 34.2718 101.116 33.5518 100.53 32.8318C99.7968 31.9678 99.2106 30.8158 98.9175 29.6638H103.9C104.047 30.0958 104.34 30.3838 104.779 30.6718C105.072 30.9598 105.512 31.1038 105.952 31.2478C106.391 31.3918 107.124 31.5358 107.857 31.5358C109.322 31.5358 110.348 31.1038 111.227 30.3838C112.107 29.6638 112.4 28.6558 112.4 27.5038V26.0638C111.96 26.4958 111.52 26.7838 111.081 27.0718C110.641 27.3598 110.055 27.6478 109.469 27.7918C108.883 27.9358 108.15 28.0798 107.271 28.0798C106.098 28.0798 104.926 27.7918 103.754 27.3598C102.581 26.9278 101.702 26.2078 100.823 25.3438C99.9434 24.4798 99.3572 23.4718 98.9175 22.3198C98.4779 21.1678 98.1848 19.8718 98.1848 18.5758C98.1848 17.1358 98.4779 15.9838 98.9175 14.8318C99.3572 13.6798 100.09 12.6718 100.823 11.8078C101.702 10.9438 102.581 10.3678 103.754 9.79182C104.486 9.35982 105.659 9.21582 106.977 9.21582ZM102.874 18.7198C102.874 19.4398 103.021 20.0158 103.167 20.5918C103.46 21.1678 103.754 21.7438 104.193 22.1758C104.633 22.6078 105.072 22.8958 105.659 23.1838C106.245 23.4718 106.831 23.6158 107.564 23.6158C108.15 23.6158 108.736 23.4718 109.322 23.1838C109.908 22.8958 110.348 22.6078 110.788 22.1758C111.227 21.7438 111.52 21.1678 111.813 20.5918C112.107 20.0158 112.253 19.2958 112.253 18.7198C112.253 17.9998 112.107 17.4238 111.813 16.8478C111.52 16.2718 111.227 15.6958 110.788 15.2638C110.348 14.8318 109.908 14.5438 109.322 14.2558C108.736 13.9678 108.15 13.8238 107.564 13.8238C106.831 13.8238 106.245 13.9678 105.659 14.2558C105.072 14.5438 104.633 14.8318 104.193 15.2638C103.754 15.6958 103.46 16.2718 103.167 16.8478C103.021 17.4238 102.874 17.9998 102.874 18.7198Z" fill="#77787C"/>
<path d="M129.252 29.0878C128.08 29.0878 126.908 28.7998 125.735 28.3678C124.563 27.9358 123.684 27.2158 122.804 26.3518C121.925 25.4878 121.339 24.4798 120.753 23.1838C120.313 22.0318 120.02 20.5918 120.02 19.1518C120.02 17.7118 120.313 16.4158 120.753 15.1198C121.192 13.9678 121.925 12.8158 122.804 11.9518C123.684 11.0878 124.563 10.3678 125.735 9.93582C126.908 9.50382 128.08 9.21582 129.252 9.21582C130.132 9.21582 130.864 9.35982 131.597 9.50382C132.33 9.79182 132.916 9.93582 133.356 10.2238C133.942 10.5118 134.381 10.9438 134.821 11.2318L135.7 9.35982H139.364V28.7998H135.7L134.821 26.9278C134.381 27.3598 133.795 27.6478 133.356 27.9358C132.916 28.2238 132.33 28.5118 131.597 28.6558C130.864 28.9438 130.132 29.0878 129.252 29.0878ZM134.821 19.1518C134.821 17.5678 134.381 16.2718 133.356 15.2638C132.476 14.2558 131.304 13.8238 129.838 13.8238C128.373 13.8238 127.201 14.2558 126.321 15.2638C125.442 16.2718 124.856 17.5678 124.856 19.1518C124.856 20.7358 125.296 22.0318 126.321 23.0398C127.201 24.0478 128.373 24.4798 129.838 24.4798C131.304 24.4798 132.476 24.0478 133.356 23.0398C134.381 22.0318 134.821 20.7358 134.821 19.1518Z" fill="#77787C"/>
<path d="M145.958 4.75195H150.208V9.35995H154.458V13.824H150.208V21.888C150.208 22.752 150.501 23.472 150.941 23.904C151.381 24.336 152.113 24.624 152.993 24.624C153.286 24.624 153.432 24.624 153.579 24.624C153.725 24.624 153.872 24.624 154.018 24.624C154.165 24.624 154.311 24.624 154.311 24.48V28.656C154.165 28.8 153.872 28.8 153.579 28.8C153.139 28.944 152.553 28.944 151.967 28.944C150.941 28.944 150.062 28.8 149.329 28.512C148.45 28.224 147.863 27.648 147.277 27.072C146.691 26.496 146.251 25.776 145.958 24.912C145.665 24.048 145.519 23.04 145.519 22.032V13.824H142.441V9.79195H143.614C145.226 9.79195 145.958 9.07195 145.958 7.48795V4.75195Z" fill="#77787C"/>
<path d="M165.888 29.0878C164.716 29.0878 163.544 28.7998 162.371 28.3678C161.199 27.9358 160.32 27.2158 159.44 26.3518C158.561 25.4878 157.975 24.4798 157.389 23.1838C156.949 22.0318 156.656 20.5918 156.656 19.1518C156.656 17.7118 156.949 16.4158 157.389 15.1198C157.828 13.9678 158.561 12.8158 159.44 11.9518C160.32 11.0878 161.199 10.3678 162.371 9.93582C163.544 9.50382 164.716 9.21582 165.888 9.21582C166.768 9.21582 167.5 9.35982 168.233 9.50382C168.966 9.79182 169.552 9.93582 169.992 10.2238C170.578 10.5118 171.017 10.9438 171.457 11.2318L172.336 9.35982H176V28.7998H172.336L171.457 26.9278C171.017 27.3598 170.431 27.6478 169.992 27.9358C169.552 28.2238 168.966 28.5118 168.233 28.6558C167.5 28.9438 166.768 29.0878 165.888 29.0878ZM171.457 19.1518C171.457 17.5678 171.017 16.2718 169.992 15.2638C169.112 14.2558 167.794 13.8238 166.475 13.8238C165.009 13.8238 163.837 14.2558 162.958 15.2638C161.932 16.2718 161.492 17.5678 161.492 19.1518C161.492 20.7358 161.932 22.0318 162.958 23.0398C163.837 24.0478 165.009 24.4798 166.475 24.4798C167.94 24.4798 169.112 24.0478 169.992 23.0398C171.017 22.0318 171.457 20.7358 171.457 19.1518Z" fill="#77787C"/>
<path d="M28.2831 14.5439H23.8867C21.6886 14.5439 19.7835 15.6959 18.7577 17.4239C18.3181 18.2879 18.025 19.2959 18.025 20.3039V27.3599C18.025 27.7919 18.3181 28.2239 18.6111 28.5119C18.7577 28.7999 19.0508 28.7999 19.3439 28.7999H28.2831C29.1623 28.7999 29.7485 28.0799 29.7485 27.3599V15.9839C29.7485 15.2639 29.0158 14.5439 28.2831 14.5439Z" fill="#EB2227"/>
<path d="M23.7402 11.664C26.9642 11.664 29.7485 9.07196 29.7485 5.75996C29.7485 2.59196 27.1107 -0.144043 23.7402 -0.144043C20.5162 -0.144043 17.7319 2.44796 17.7319 5.75996C17.8784 9.07196 20.5162 11.664 23.7402 11.664Z" fill="#EB2227"/>
<path d="M13.3356 0H13.189C12.7494 0 12.3097 0.144 11.8701 0.144C9.67194 0.72 7.62032 1.584 6.00833 2.88C4.83597 3.744 3.81016 4.752 2.93089 5.904C1.61199 7.488 0.732723 9.504 0.293089 11.664C0.146545 12.672 0 13.536 0 14.544C0 15.552 0.146545 16.56 0.293089 17.424C0.732723 19.728 1.61199 21.6 2.93089 23.328C3.81016 24.48 4.83597 25.488 6.00833 26.352C7.76686 27.648 9.81848 28.512 12.0167 28.944C12.4563 29.088 12.8959 29.088 13.3356 29.088H13.6286C14.5079 29.088 15.0941 28.368 15.0941 27.648V1.44C14.801 0.72 14.2148 0 13.3356 0Z" fill="#EB2227"/>
</g>
<defs>
<clipPath id="clip0">
<path d="M0 0H176V36H0V0Z" fill="white"/>
</clipPath>
</defs>
</svg>
